<?xml version="1.0" encoding="utf-8"?>
<!-- Generator: Adobe Illustrator 18.1.1, SVG Export Plug-In . SVG Version: 6.00 Build 0)  -->
<svg version="1.1" id="Layer_1" xmlns="http://www.w3.org/2000/svg" xmlns:xlink="http://www.w3.org/1999/xlink" x="0px" y="0px"
	 viewBox="0 0 194 153.2" enable-background="new 0 0 194 153.2" xml:space="preserve">
<g>
	<path fill="#092E44" d="M92.9,2.7C52.2,2.7,19,35.9,19,76.6c0,40.7,33.1,73.9,73.9,73.9c40.7,0,73.9-33.1,73.9-73.9
		C166.8,35.9,133.6,2.7,92.9,2.7z"/>
	<g>
		<path fill="#0F5D93" d="M92.9,5.7C53.8,5.7,22,37.5,22,76.6c0,39.1,31.8,70.9,70.9,70.9c39.1,0,70.9-31.8,70.9-70.9
			C163.8,37.5,132,5.7,92.9,5.7z M92.9,138.6c-34.2,0-62-27.8-62-62c0-34.2,27.8-62,62-62c34.2,0,62,27.8,62,62
			C154.9,110.8,127.1,138.6,92.9,138.6z"/>
		<g>
			<g>
				<path fill="#FFFFFF" d="M42.8,33.6c0.3,0.2,0.4,0.5,0.4,0.8c0,0.3,0,0.6-0.3,1L41.6,37l-3-2.4l1.1-1.4c0.3-0.4,0.6-0.5,0.9-0.5
					c0.3,0,0.6,0.1,0.8,0.3c0.2,0.2,0.3,0.3,0.3,0.5c0,0,0.1-0.1,0.2-0.1C42.3,33.3,42.5,33.4,42.8,33.6z M40,34.2l0.4,0.3l0.3-0.4
					c0.1-0.1,0.1-0.2,0.1-0.2c0-0.1,0-0.1-0.1-0.2c-0.1-0.1-0.3-0.1-0.4,0L40,34.2z M42.1,34.4c-0.1-0.1-0.3-0.1-0.4,0l-0.6,0.7
					l0.5,0.4l0.5-0.6c0.1-0.1,0.1-0.2,0.1-0.3C42.2,34.5,42.2,34.5,42.1,34.4z"/>
			</g>
			<g>
				<path fill="#FFFFFF" d="M50.3,28.6l-1.6-0.3c-0.1,0.1-0.1,0.1-0.2,0.2L48.1,29l0.4,0.4l-0.9,0.8L45,27.4l1.4-1.3
					c0.3-0.3,0.7-0.5,1.2-0.5c0.5,0,0.8,0.2,1.1,0.5c0.3,0.3,0.4,0.6,0.4,1l1.4,0.3L50.3,28.6z M47.8,27.7c0.2-0.2,0.2-0.5,0-0.6
					c-0.2-0.2-0.5-0.2-0.6,0l-0.5,0.5l0.6,0.7L47.8,27.7z"/>
			</g>
			<g>
				<path fill="#FFFFFF" d="M56.6,22.3l-1,0.7l0.1,0.5l-1,0.7l-1-3.9l1.2-0.8l3.2,2.4l-1,0.7L56.6,22.3z M55.7,21.7l-0.7-0.5
					l0.2,0.8L55.7,21.7z"/>
			</g>
			<g>
				<path fill="#FFFFFF" d="M64,17.3l1.2-0.6l0.5,1.1l-3.1,1.5l0.2-3l-1.2,0.6l-0.5-1.1l3.1-1.5L64,17.3z"/>
			</g>
			<g>
				<path fill="#FFFFFF" d="M72.3,15.3l-1.1,0.4L69.9,12l1.1-0.4L72.3,15.3z"/>
			</g>
			<g>
				<path fill="#FFFFFF" d="M80.3,13.3l-2.4,0.5L77.1,10l1.2-0.2l0.5,2.6l1.2-0.2L80.3,13.3z"/>
			</g>
			<g>
				<path fill="#FFFFFF" d="M87.1,12.4l-1.2,0.1l-0.3-3.8l1.2-0.1L87.1,12.4z"/>
			</g>
			<g>
				<path fill="#FFFFFF" d="M95.4,11.9l-1.2-0.1l-0.2,0.5l-1.3-0.1l1.5-3.8l1.4,0.1l1.1,3.9l-1.2-0.1L95.4,11.9z M95.1,10.9
					l-0.2-0.8l-0.3,0.8L95.1,10.9z"/>
			</g>
			<g>
				<path fill="#FFFFFF" d="M105.8,13.9l-1.1-0.2l0,0l-0.8-2l-0.4,1.7l-1.2-0.2l0.8-3.7l1.2,0.2l0.9,1.9l0.3-1.7l1.2,0.2L105.8,13.9
					z"/>
			</g>
		</g>
		<g>
			<g>
				<path fill="#FFFFFF" d="M82.4,141.7l-0.1,0.4l1.5,0.3l-0.2,0.9l-1.5-0.3l-0.2,1.3l-1.2-0.2l0.7-3.7l2.7,0.5l-0.2,1L82.4,141.7z"
					/>
			</g>
			<g>
				<path fill="#FFFFFF" d="M89.6,146l-0.9-1.3c-0.1,0-0.2,0-0.2,0l-0.7-0.1l0,0.5l-1.2-0.1l0.3-3.8l1.9,0.1c0.4,0,0.8,0.2,1.1,0.5
					c0.3,0.3,0.4,0.7,0.4,1.2c0,0.4-0.2,0.7-0.4,1l0.8,1.2L89.6,146z M88.6,143.5c0.3,0,0.5-0.2,0.5-0.4c0-0.2-0.2-0.5-0.4-0.5
					l-0.7-0.1l-0.1,0.9L88.6,143.5z"/>
			</g>
			<g>
				<path fill="#FFFFFF" d="M94.5,145.3l-1.2,0l0-3.8l1.2,0L94.5,145.3z"/>
			</g>
			<g>
				<path fill="#FFFFFF" d="M98.6,142.4l0,0.4l1.5-0.1l0.1,0.9l-1.5,0.1l0,0.4l1.6-0.1l0.1,1.1l-2.7,0.2l-0.3-3.8l2.7-0.2l0.1,1
					L98.6,142.4z"/>
			</g>
			<g>
				<path fill="#FFFFFF" d="M106.2,143.6c-0.3,0.4-0.7,0.7-1.2,0.8l-1.5,0.3l-0.7-3.7l1.5-0.3c0.5-0.1,1,0,1.4,0.3
					c0.4,0.3,0.7,0.7,0.8,1.2C106.6,142.6,106.5,143.1,106.2,143.6z M105.4,142.3c0-0.2-0.1-0.3-0.3-0.5c-0.1-0.1-0.3-0.2-0.5-0.1
					l-0.4,0.1l0.3,1.4l0.1,0c0.3,0,0.5-0.1,0.7-0.3C105.4,142.7,105.4,142.5,105.4,142.3z"/>
			</g>
			<g>
				<path fill="#FFFFFF" d="M117,140.7c-0.3,0.5-0.5,0.7-1.1,0.8c-0.5,0.2-1,0.2-1.6-0.1c-0.5-0.2-0.9-0.6-1-1.2
					c-0.2-0.5-0.2-1,0.1-1.6c0.2-0.5,0.6-0.9,1.2-1c0.5-0.2,1.1-0.1,1.4,0l-0.3,1.2c0,0,0,0,0,0c-0.2-0.1-0.4-0.1-0.7,0
					c-0.2,0.1-0.4,0.2-0.5,0.4c-0.1,0.2-0.1,0.4,0,0.7c0.1,0.2,0.2,0.4,0.4,0.5c0.2,0.1,0.5,0.1,0.7,0c0.2-0.1,0.5-0.2,0.6-0.4
					c0,0,0,0,0,0l1,0.6L117,140.7z"/>
			</g>
			<g>
				<path fill="#FFFFFF" d="M123,138.3l-1.1,0.5l-0.6-1.2l-1,0.5l0.6,1.2l-1.1,0.5l-1.6-3.4l1.1-0.5l0.6,1.2l1-0.5l-0.6-1.2l1.1-0.5
					L123,138.3z"/>
			</g>
			<g>
				<path fill="#FFFFFF" d="M126.8,136.2l-1,0.6l-1.9-3.3l1-0.6L126.8,136.2z"/>
			</g>
			<g>
				<path fill="#FFFFFF" d="M131.9,132.5c-0.2,0.6-0.4,0.8-0.8,1.1c-0.5,0.3-1,0.4-1.5,0.3c-0.6-0.1-1-0.4-1.3-0.8
					c-0.3-0.5-0.4-1-0.3-1.5c0.1-0.6,0.4-1,0.8-1.3c0.5-0.3,1-0.4,1.3-0.4l0,1.2c0,0,0,0,0,0c-0.2,0-0.4,0-0.6,0.1
					c-0.2,0.1-0.3,0.3-0.4,0.6c0,0.2,0,0.4,0.1,0.6c0.1,0.2,0.3,0.3,0.5,0.4c0.2,0,0.5,0,0.7-0.2c0.2-0.1,0.4-0.3,0.4-0.6
					c0,0,0,0,0,0l1.1,0.3L131.9,132.5z"/>
			</g>
			<g>
				<path fill="#FFFFFF" d="M137.1,129.6l-2.5-0.5l0.9,1l-0.9,0.8l-2.5-2.9l0.9-0.8l0.8,0.9l0.2-2l1.2,0.1l-0.1,1.6l2.4,0.5
					L137.1,129.6z"/>
			</g>
			<g>
				<path fill="#FFFFFF" d="M138.2,123.7l0.3,0.2l1.1-1.1l0.7,0.7l-1.1,1.1l0.3,0.3l1.1-1.1l0.8,0.7l-1.9,2l-2.7-2.6l1.9-2l0.7,0.7
					L138.2,123.7z"/>
			</g>
			<g>
				<path fill="#FFFFFF" d="M145.6,119.4l-0.7,0.9l0,0l-2.1-0.1l1.4,1.1l-0.7,0.9l-3-2.4l0.7-0.9l2.1,0.1l-1.3-1.1l0.7-0.9
					L145.6,119.4z"/>
			</g>
		</g>
		<g>
			<g>
				<path fill-rule="evenodd" clip-rule="evenodd" fill="#FFFFFF" d="M33.3,46.6c-0.7-0.4-1-1.2-0.6-1.9c0.4-0.7,1.2-0.9,1.9-0.6
					c0.7,0.4,0.9,1.2,0.6,1.9C34.9,46.7,34,47,33.3,46.6z"/>
			</g>
			<g>
				<path fill-rule="evenodd" clip-rule="evenodd" fill="#FFFFFF" d="M29.2,56.5c-0.7-0.2-1.1-1-0.9-1.8c0.3-0.8,1.1-1.1,1.8-0.9
					c0.7,0.3,1.1,1.1,0.9,1.8C30.8,56.3,29.9,56.7,29.2,56.5z"/>
			</g>
			<g>
				<path fill-rule="evenodd" clip-rule="evenodd" fill="#FFFFFF" d="M64.7,137.1c-0.3,0.7-1.2,1-1.9,0.7c-0.7-0.3-1-1.2-0.6-1.9
					c0.4-0.7,1.2-1,1.9-0.6C64.7,135.6,65,136.4,64.7,137.1z"/>
			</g>
			<g>
				<path fill-rule="evenodd" clip-rule="evenodd" fill="#FFFFFF" d="M74.7,140.8c-0.2,0.7-1,1.2-1.8,1c-0.8-0.2-1.2-1-0.9-1.8
					c0.2-0.7,1-1.2,1.7-0.9C74.5,139.3,74.9,140.1,74.7,140.8z"/>
			</g>
			<g>
				<path fill-rule="evenodd" clip-rule="evenodd" fill="#FFFFFF" d="M149,111.7c0.7,0.4,0.9,1.3,0.4,1.9c-0.4,0.7-1.3,0.8-1.9,0.4
					c-0.6-0.4-0.8-1.3-0.4-1.9C147.5,111.5,148.3,111.3,149,111.7z"/>
			</g>
			<g>
				<path fill-rule="evenodd" clip-rule="evenodd" fill="#FFFFFF" d="M153.9,102.2c0.7,0.3,1.1,1.1,0.8,1.9c-0.3,0.7-1.2,1-1.9,0.7
					c-0.7-0.3-1-1.2-0.7-1.8C152.3,102.2,153.1,101.9,153.9,102.2z"/>
			</g>
			<g>
				<path fill-rule="evenodd" clip-rule="evenodd" fill="#FFFFFF" d="M156.4,58.6c0.7-0.2,1.6,0.2,1.7,1c0.2,0.8-0.3,1.5-1,1.7
					c-0.8,0.2-1.5-0.3-1.7-1C155.2,59.6,155.6,58.8,156.4,58.6z"/>
			</g>
			<g>
				<path fill-rule="evenodd" clip-rule="evenodd" fill="#FFFFFF" d="M152.6,48.6c0.7-0.3,1.5,0,1.9,0.7c0.3,0.7,0,1.6-0.7,1.9
					c-0.7,0.3-1.5,0-1.8-0.7C151.6,49.7,151.9,48.9,152.6,48.6z"/>
			</g>
			<g>
				<path fill-rule="evenodd" clip-rule="evenodd" fill="#FFFFFF" d="M125,18.9c0.4-0.7,1.2-0.9,1.9-0.5c0.7,0.4,0.9,1.3,0.5,1.9
					c-0.4,0.7-1.3,0.9-1.9,0.5C124.9,20.5,124.6,19.6,125,18.9z"/>
			</g>
			<g>
				<path fill-rule="evenodd" clip-rule="evenodd" fill="#FFFFFF" d="M115.3,14.4c0.3-0.7,1.1-1.1,1.8-0.8c0.7,0.3,1.1,1.1,0.8,1.8
					c-0.3,0.7-1.1,1.1-1.8,0.8C115.4,16,115,15.2,115.3,14.4z"/>
			</g>
		</g>
	</g>
	<g>
		<path fill="#BA2927" d="M58.4,61C58.4,61,58.4,61,58.4,61c0-0.1-0.1-0.3-0.2-0.5c-0.3-0.8-0.3-1.6,0-2.3c0.4-2,2-4.1,2.9-5.7
			c1.1-2.1,1.9-4.3,4.3-5.1c4-1.5,8-3,12-4.5c10.2-3.8,20.4-7.5,30.5-11.3c2.1-0.8,4.1,0.9,4.8,2.7c1.5,4,3,7.9,4.5,11.9
			c0.7-1.9,1.5-3.7,2.5-5.5c2.2-4,4.2-8.2,6.9-12c-9.6-6.8-21.3-10.9-34-10.9c-26.1,0-48.2,17.1-55.7,40.7
			C44.3,56.2,51.9,56.4,58.4,61z"/>
	</g>
	<g>
		<path fill="#BA2927" d="M123.4,82.5c-0.1,0.3-0.3,0.5-0.4,0.8c-0.1,0.2-0.2,0.4-0.3,0.5c-0.4,0.8-1.2,1.4-2,1.7
			c-0.1,0.1-0.2,0.1-0.3,0.1c-4.6,1.7-9.2,3.5-13.8,5.2c1.6,4.2,3.2,8.3,4.7,12.5c0.4,1,0.2,2-0.3,2.8c0,0.1-0.1,0.2-0.1,0.3
			c-1.4,2.6-2.9,5.2-4.3,7.9c-0.4,0.8-1.3,1.3-2,1.7c-0.2,0.1-1,0.4-1.3,0.5c-0.8,0.3-1.5,0.6-2.3,0.9c-2,0.8-4,1.5-6,2.3
			c-3,1.1-6.1,2.3-9.1,3.5c-2.1,0.8-4.1-0.9-4.8-2.7c-0.7-1.8-1.4-3.6-2-5.4c-1.2,2.2-2.4,4.4-3.7,6.7c-0.1,0.2-0.3,0.4-0.4,0.6
			c-2.1,3.1-4.8,5.4-7.9,7.2c7.9,3.9,16.7,6.2,26.1,6.2c25.3,0,46.8-16,55-38.5C138.3,95.5,129.4,90.4,123.4,82.5z"/>
	</g>
	<g>
		<g>
			<path fill="#092E44" d="M124.4,85.9c0,0.1,0.1,0.1,0.1,0.2"/>
		</g>
		<g>
			<line fill="#092E44" x1="107.9" y1="92.3" x2="107.9" y2="92.2"/>
		</g>
		<g>
			<line fill="#092E44" x1="108.8" y1="94.6" x2="108.7" y2="94.4"/>
		</g>
		<g>
			<path fill="#092E44" d="M126.2,87.8c0.1,0.1,0.1,0.1,0.2,0.2"/>
		</g>
		<g>
			<path fill="#092E44" d="M128.2,89.5c0.1,0,0.1,0.1,0.2,0.1"/>
		</g>
		<g>
			<line fill="#092E44" x1="109.6" y1="96.8" x2="109.6" y2="96.6"/>
		</g>
		<g>
			<line fill="#092E44" x1="110.5" y1="99.1" x2="110.4" y2="98.9"/>
		</g>
		<g>
			<path fill="#092E44" d="M130.5,91.2c0.1,0,0.1,0.1,0.2,0.1"/>
		</g>
		<g>
			<line fill="#092E44" x1="111.3" y1="101.3" x2="111.2" y2="101.1"/>
		</g>
		<g>
			<path fill="#092E44" d="M133,92.9c0.1,0,0.1,0.1,0.2,0.1"/>
		</g>
		<g>
			<path fill="#092E44" d="M112.1,103.5c0-0.1,0-0.1,0-0.2"/>
		</g>
		<g>
			<path fill="#092E44" d="M135.7,94.4c0.1,0,0.2,0.1,0.2,0.1"/>
		</g>
		<g>
			<path fill="#092E44" d="M138.8,95.7c0.1,0,0.2,0.1,0.3,0.1"/>
		</g>
		<g>
			<path fill="#092E44" d="M77.6,119.2c0-0.1,0.1-0.2,0.1-0.3"/>
		</g>
		<g>
			<path fill="#092E44" d="M142.4,97c0.1,0,0.2,0.1,0.3,0.1"/>
		</g>
		<g>
			<path fill="#092E44" d="M75.7,122.5c0.1-0.1,0.1-0.2,0.2-0.3"/>
		</g>
		<g>
			<path fill="#092E44" d="M72.6,126.2c0.1-0.1,0.2-0.2,0.3-0.3"/>
		</g>
		<g>
			<path fill="#092E44" d="M146,98.1c0,0.1-0.1,0.2-0.1,0.2"/>
		</g>
		<g>
			<path fill="#092E44" d="M144.7,101.2c0,0.1-0.1,0.2-0.1,0.3"/>
		</g>
		<g>
			<path fill="#092E44" d="M70.3,129.6c-0.1,0-0.2-0.1-0.3-0.1"/>
		</g>
		<g>
			<path fill="#092E44" d="M73.6,130.9c-0.1,0-0.2-0.1-0.3-0.1"/>
		</g>
		<g>
			<path fill="#092E44" d="M143.1,104.4c0,0.1-0.1,0.2-0.1,0.3"/>
		</g>
		<g>
			<path fill="#092E44" d="M77.3,132.1c-0.1,0-0.2-0.1-0.3-0.1"/>
		</g>
		<g>
			<path fill="#092E44" d="M141.2,107.6c-0.1,0.1-0.1,0.2-0.2,0.3"/>
		</g>
		<g>
			<path fill="#092E44" d="M138.8,111.1c-0.1,0.1-0.2,0.2-0.2,0.3"/>
		</g>
		<g>
			<path fill="#092E44" d="M81.4,133.1c-0.1,0-0.2,0-0.4-0.1"/>
		</g>
		<g>
			<path fill="#092E44" d="M86.1,133.9c-0.1,0-0.3,0-0.4-0.1"/>
		</g>
		<g>
			<path fill="#092E44" d="M135.8,114.8c-0.1,0.1-0.2,0.2-0.3,0.3"/>
		</g>
		<g>
			<path fill="#092E44" d="M131.8,118.9c-0.1,0.1-0.3,0.2-0.4,0.4"/>
		</g>
		<g>
			<path fill="#092E44" d="M91.9,134.2c-0.2,0-0.3,0-0.5,0"/>
		</g>
		<g>
			<path fill="#092E44" d="M99.7,133.8c-0.3,0-0.5,0.1-0.8,0.1"/>
		</g>
		<g>
			<path fill="#092E44" d="M125.9,123.7c-0.2,0.1-0.4,0.3-0.6,0.5"/>
		</g>
		<g>
			<path fill="#092E44" d="M124.4,85.9l-16.5,6.3l0.1,0.2l16.6-6.3C124.5,86,124.4,85.9,124.4,85.9z"/>
		</g>
		<g>
			<path fill="#092E44" d="M126.2,87.8l-17.5,6.6l0.1,0.2l17.6-6.7C126.3,87.9,126.3,87.8,126.2,87.8z"/>
		</g>
		<g>
			<path fill="#092E44" d="M128.2,89.5l-18.7,7.1l0.1,0.2l18.8-7.1C128.4,89.6,128.3,89.6,128.2,89.5z"/>
		</g>
		<g>
			<path fill="#092E44" d="M130.5,91.2l-20.1,7.6l0.1,0.2l20.2-7.7C130.6,91.3,130.5,91.3,130.5,91.2z"/>
		</g>
		<g>
			<path fill="#092E44" d="M133,92.9l-21.7,8.2l0.1,0.2l21.9-8.3C133.1,92.9,133,92.9,133,92.9z"/>
		</g>
		<g>
			<path fill="#092E44" d="M135.7,94.4l-23.7,9c0,0.1,0,0.1,0,0.2l23.9-9.1C135.9,94.4,135.8,94.4,135.7,94.4z"/>
		</g>
		<g>
			<path fill="#092E44" d="M139.1,95.9c-0.1,0-0.2-0.1-0.3-0.1l-27,10.2c0,0.1-0.1,0.2-0.1,0.2L139.1,95.9z"/>
		</g>
		<g>
			<path fill="#092E44" d="M78.8,118.5l-1.1,0.4c0,0.1-0.1,0.2-0.1,0.3l1.3-0.5L78.8,118.5z"/>
		</g>
		<g>
			<path fill="#092E44" d="M79.6,120.8l-3.7,1.4c-0.1,0.1-0.1,0.2-0.2,0.3l4-1.5C79.7,120.9,79.7,120.8,79.6,120.8z"/>
		</g>
		<g>
			<path fill="#092E44" d="M110.1,109.4l32.6-12.4c-0.1,0-0.2-0.1-0.3-0.1l-32.2,12.2L110.1,109.4z"/>
		</g>
		<g>
			<path fill="#092E44" d="M108.3,112.7l37.6-14.3c0-0.1,0.1-0.2,0.1-0.2l-37.6,14.3L108.3,112.7z"/>
		</g>
		<g>
			<path fill="#092E44" d="M81,122.8l-8.1,3.1c-0.1,0.1-0.2,0.2-0.3,0.3l8.6-3.2C81.1,122.9,81.1,122.9,81,122.8z"/>
		</g>
		<g>
			<path fill="#092E44" d="M83.9,124.3L70,129.5c0.1,0,0.2,0.1,0.3,0.1l14.1-5.3C84.2,124.3,84,124.3,83.9,124.3z"/>
		</g>
		<g>
			<path fill="#092E44" d="M106,116.1l38.6-14.6c0-0.1,0.1-0.2,0.1-0.3l-38.3,14.5C106.3,115.9,106.1,116,106,116.1z"/>
		</g>
		<g>
			<path fill="#092E44" d="M143.1,104.4l-69.8,26.5c0.1,0,0.2,0.1,0.3,0.1l69.4-26.3C143,104.5,143.1,104.4,143.1,104.4z"/>
		</g>
		<g>
			<path fill="#092E44" d="M141.2,107.6L76.9,132c0.1,0,0.2,0.1,0.3,0.1l63.7-24.2C141.1,107.8,141.1,107.7,141.2,107.6z"/>
		</g>
		<g>
			<path fill="#092E44" d="M138.8,111.1L81,133c0.1,0,0.2,0,0.4,0.1l57.2-21.7C138.6,111.3,138.7,111.2,138.8,111.1z"/>
		</g>
		<g>
			<path fill="#092E44" d="M135.8,114.8l-50.1,19c0.1,0,0.3,0,0.4,0.1l49.4-18.7C135.6,115,135.7,114.9,135.8,114.8z"/>
		</g>
		<g>
			<path fill="#092E44" d="M131.8,118.9l-40.5,15.4c0.2,0,0.3,0,0.5,0l39.6-15C131.6,119.1,131.7,119,131.8,118.9z"/>
		</g>
		<g>
			<path fill="#092E44" d="M125.3,124.1c0.2-0.1,0.4-0.3,0.6-0.5l-27,10.2c0.3,0,0.5-0.1,0.8-0.1L125.3,124.1z"/>
		</g>
	</g>
	<g>
		<g>
			<path fill="#092E44" d="M85.6,19.3c0.2,0,0.5,0,0.7-0.1"/>
		</g>
		<g>
			<path fill="#092E44" d="M58.8,29.7c0.2-0.1,0.4-0.3,0.6-0.4"/>
		</g>
		<g>
			<path fill="#092E44" d="M53,34.4c0.1-0.1,0.3-0.2,0.4-0.4"/>
		</g>
		<g>
			<path fill="#092E44" d="M93.3,18.9c0.2,0,0.4,0,0.5,0"/>
		</g>
		<g>
			<path fill="#092E44" d="M99.1,19.3c0.1,0,0.3,0,0.4,0.1"/>
		</g>
		<g>
			<path fill="#092E44" d="M49.2,38.5c0.1-0.1,0.2-0.2,0.3-0.3"/>
		</g>
		<g>
			<path fill="#092E44" d="M46.2,42.1c0.1-0.1,0.1-0.2,0.2-0.3"/>
		</g>
		<g>
			<path fill="#092E44" d="M103.8,20.1c0.1,0,0.2,0,0.4,0.1"/>
		</g>
		<g>
			<path fill="#092E44" d="M43.9,45.6c0.1-0.1,0.1-0.2,0.2-0.3"/>
		</g>
		<g>
			<path fill="#092E44" d="M107.9,21.1c0.1,0,0.2,0.1,0.3,0.1"/>
		</g>
		<g>
			<path fill="#092E44" d="M41.9,48.9c0-0.1,0.1-0.2,0.1-0.3"/>
		</g>
		<g>
			<path fill="#092E44" d="M111.6,22.2c0.1,0,0.2,0.1,0.3,0.1"/>
		</g>
		<g>
			<path fill="#092E44" d="M114.9,23.5c0.1,0,0.2,0.1,0.3,0.1"/>
		</g>
		<g>
			<path fill="#092E44" d="M40.4,52c0-0.1,0.1-0.2,0.1-0.3"/>
		</g>
		<g>
			<path fill="#092E44" d="M39,55.1c0-0.1,0.1-0.2,0.1-0.2"/>
		</g>
		<g>
			<path fill="#092E44" d="M117.9,25c0.1,0,0.2,0.1,0.2,0.1"/>
		</g>
		<g>
			<path fill="#092E44" d="M110.5,30.5c-0.1,0-0.2-0.1-0.3-0.1"/>
		</g>
		<g>
			<path fill="#092E44" d="M61.3,49c-0.1,0.1-0.1,0.2-0.2,0.3"/>
		</g>
		<g>
			<path fill="#092E44" d="M43.8,55.8c-0.2,0-0.5,0-0.7,0.1"/>
		</g>
		<g>
			<path fill="#092E44" d="M120.7,26.4c0.1,0,0.2,0.1,0.2,0.1"/>
		</g>
		<g>
			<path fill="#092E44" d="M49.7,56.1c-0.1,0-0.3,0-0.4-0.1"/>
		</g>
		<g>
			<path fill="#092E44" d="M112.6,32.3c0-0.1-0.1-0.1-0.1-0.2"/>
		</g>
		<g>
			<path fill="#092E44" d="M59.5,52.2c-0.1,0.1-0.1,0.2-0.2,0.3"/>
		</g>
		<g>
			<path fill="#092E44" d="M123.3,28c0.1,0,0.1,0.1,0.2,0.1"/>
		</g>
		<g>
			<path fill="#092E44" d="M123.7,30.4c-0.1,0.1-0.1,0.2-0.2,0.3"/>
		</g>
		<g>
			<path fill="#092E44" d="M53.6,57.2c-0.1,0-0.2-0.1-0.3-0.1"/>
		</g>
		<g>
			<line fill="#092E44" x1="113.7" y1="34.4" x2="113.6" y2="34.2"/>
		</g>
		<g>
			<path fill="#092E44" d="M57.6,55.5c0,0.1-0.1,0.2-0.1,0.3"/>
		</g>
		<g>
			<path fill="#092E44" d="M121.8,33.7c0,0.1-0.1,0.2-0.1,0.3"/>
		</g>
		<g>
			<path fill="#092E44" d="M56.5,58.5C56.5,58.5,56.5,58.5,56.5,58.5c-0.1,0.1-0.1,0.1-0.1,0"/>
		</g>
		<g>
			<line fill="#092E44" x1="114.5" y1="36.7" x2="114.5" y2="36.5"/>
		</g>
		<g>
			<path fill="#092E44" d="M120,36.9c0,0.1-0.1,0.2-0.1,0.3"/>
		</g>
		<g>
			<line fill="#092E44" x1="115.4" y1="38.9" x2="115.3" y2="38.7"/>
		</g>
		<g>
			<path fill="#092E44" d="M118.3,40.1c0,0.1-0.1,0.2-0.1,0.3"/>
		</g>
		<g>
			<line fill="#092E44" x1="116.2" y1="41.1" x2="116.2" y2="41"/>
		</g>
		<g>
			<path fill="#092E44" d="M85.6,19.3l-26.3,10c-0.2,0.1-0.4,0.3-0.6,0.4l27.6-10.5C86.1,19.2,85.9,19.3,85.6,19.3z"/>
		</g>
		<g>
			<path fill="#092E44" d="M93.3,18.9L53.4,34.1c-0.1,0.1-0.3,0.2-0.4,0.4l40.8-15.5C93.7,18.9,93.5,18.9,93.3,18.9z"/>
		</g>
		<g>
			<path fill="#092E44" d="M99.1,19.3L49.4,38.2c-0.1,0.1-0.2,0.2-0.3,0.3l50.3-19.1C99.4,19.3,99.2,19.3,99.1,19.3z"/>
		</g>
		<g>
			<path fill="#092E44" d="M103.8,20.1L46.4,41.8c-0.1,0.1-0.1,0.2-0.2,0.3l58-22C104,20.1,103.9,20.1,103.8,20.1z"/>
		</g>
		<g>
			<path fill="#092E44" d="M107.9,21.1L44,45.3c-0.1,0.1-0.1,0.2-0.2,0.3l64.4-24.4C108.1,21.1,108,21.1,107.9,21.1z"/>
		</g>
		<g>
			<path fill="#092E44" d="M111.6,22.2L42.1,48.6c0,0.1-0.1,0.2-0.1,0.3l69.9-26.5C111.8,22.3,111.7,22.3,111.6,22.2z"/>
		</g>
		<g>
			<path fill="#092E44" d="M114.9,23.5L40.5,51.8c0,0.1-0.1,0.2-0.1,0.3l74.8-28.4C115.1,23.6,115,23.6,114.9,23.5z"/>
		</g>
		<g>
			<path fill="#092E44" d="M117.9,25L39.1,54.8c0,0.1-0.1,0.2-0.1,0.2l79.1-30C118.1,25,118,25,117.9,25z"/>
		</g>
		<g>
			<path fill="#092E44" d="M110.5,30.5l10.5-4c-0.1,0-0.2-0.1-0.2-0.1l-10.5,4C110.3,30.5,110.4,30.5,110.5,30.5z"/>
		</g>
		<g>
			<path fill="#092E44" d="M61.3,49l-18.1,6.9c0.2,0,0.5-0.1,0.7-0.1l17.2-6.5C61.1,49.2,61.2,49.1,61.3,49z"/>
		</g>
		<g>
			<path fill="#092E44" d="M112.6,32.3l10.9-4.1c-0.1,0-0.1-0.1-0.2-0.1l-10.8,4.1C112.5,32.2,112.6,32.2,112.6,32.3z"/>
		</g>
		<g>
			<path fill="#092E44" d="M59.5,52.2l-10.1,3.8c0.1,0,0.3,0,0.4,0.1l9.6-3.6C59.4,52.4,59.4,52.3,59.5,52.2z"/>
		</g>
		<g>
			<path fill="#092E44" d="M113.7,34.4l9.8-3.7c0.1-0.1,0.1-0.2,0.2-0.3l-10.1,3.8L113.7,34.4z"/>
		</g>
		<g>
			<path fill="#092E44" d="M57.6,55.5l-4.2,1.6c0.1,0,0.2,0.1,0.3,0.1l3.8-1.5C57.5,55.7,57.5,55.6,57.6,55.5z"/>
		</g>
		<g>
			<path fill="#092E44" d="M121.8,33.7l-7.3,2.8l0.1,0.2l7.1-2.7C121.7,33.9,121.7,33.8,121.8,33.7z"/>
		</g>
		<g>
			<path fill="#092E44" d="M56.5,58.5l-0.1,0C56.4,58.5,56.5,58.5,56.5,58.5C56.5,58.5,56.5,58.5,56.5,58.5z"/>
		</g>
		<g>
			<path fill="#092E44" d="M120,36.9l-4.7,1.8l0.1,0.2l4.5-1.7C120,37.1,120,37,120,36.9z"/>
		</g>
		<g>
			<path fill="#092E44" d="M118.2,40.4c0-0.1,0.1-0.2,0.1-0.3l-2.1,0.8l0.1,0.2L118.2,40.4z"/>
		</g>
		<g>
			<g>
				<path fill="none" stroke="#092E44" stroke-miterlimit="10" d="M104.7,28.7"/>
			</g>
		</g>
		<g>
			<g>
				<path fill="none" stroke="#092E44" stroke-miterlimit="10" d="M104.7,28.7"/>
			</g>
		</g>
	</g>
	<g>
		<path fill="#092E44" stroke="#092E44" stroke-miterlimit="10" d="M189.4,64.3c-5.6-3.1-11.1-6.2-16.7-9.3
			c-0.9-0.5-2.2-0.3-2.7,0.7c-3.1,7-13.7,9.7-20,5.9c-3.3-2-4.7-6.7-4.9-10.2c-0.1-2.5,3.2-3.4,4.9-4c2.7-0.9,5.7-0.4,8.3,0.7
			c1,0.4,2.3,0.2,2.8-0.8c2-3.7,4.1-7,5.1-11c1.3-5.5,2.5-11.1,3.8-16.6c0.2-1-0.3-2.1-1.4-2.4c-12.9-3.7-26.8-0.8-36.5,8.6
			c-4.6,4.5-7.3,10.6-10.4,16.1c-2.5,4.6-4,9.6-4.3,14.8c-0.1,0-0.2,0-0.2,0.1c-0.9,0.3-1.8,0.7-2.7,1c0.9-1.6,1.8-3.2,2.6-4.8
			c0.1-0.1,0.1-0.3,0.2-0.4c0,0,0,0,0,0c0-0.1,0-0.1,0.1-0.2c0-0.1,0-0.3,0-0.4c0,0,0,0,0,0c0-0.1,0-0.2-0.1-0.3
			c0-0.1,0-0.1-0.1-0.2c-2.1-5.4-4.1-10.8-6.2-16.3c-0.4-0.9-1.3-1.8-2.4-1.4c-10.2,3.8-20.4,7.5-30.5,11.3c-4,1.5-8,3-12,4.5
			c-1.7,0.6-2.3,2.8-3.1,4.2c-0.7,1.3-2.5,3.5-2.7,5.3c-0.1,0.3-0.2,0.7,0,1.1c2.7,7.1,5.4,14.2,8,21.2c-0.9-0.4-1.7-0.6-2.6-0.7
			c1-6.5-3.1-14.3-8.1-17.8c-6.6-4.7-14.1-4.5-21.5-1.6c-8.8,3.4-17.6,6.7-26.4,10.1c-1.4,0.5-1.8,1.8-2.5,3c-1.1,2-2.8,4.1-3.4,6.3
			c-0.5,1.8,1.5,5,2.1,6.6c4.2,11,8.3,21.9,12.5,32.9c2.6,6.8,5.2,13.6,7.8,20.5c0.4,0.9,1.3,1.8,2.4,1.4c7.3-2.8,14.5-5.5,21.8-8.2
			c8.4-3.2,17.9-5.7,23-13.6c0,0,0.1-0.1,0.1-0.1c1.7-3.2,3.5-6.3,5.2-9.5c0.1-0.2,0.2-0.4,0.2-0.6c0.1-0.1,0.1-0.2,0.2-0.4
			c1.2,3.2,2.4,6.5,3.7,9.7c0.4,0.9,1.3,1.8,2.4,1.4c3-1.2,6.1-2.3,9.1-3.5c2-0.8,4-1.5,6-2.3c0.8-0.3,1.5-0.6,2.3-0.9
			c0.4-0.1,1.2-0.2,0.4-0.3c0.7,0,1.4-0.4,1.7-1c1.4-2.6,2.9-5.2,4.3-7.9c0,0,0-0.1,0.1-0.1c0.2-0.4,0.3-0.9,0.2-1.4
			c-1.8-4.7-3.6-9.4-5.4-14.2c5.3-2,10.5-4,15.8-6c0.1-0.1,0.3-0.1,0.4-0.2c0.1,0,0.1-0.1,0.2-0.1c0,0,0.1-0.1,0.1-0.1
			c0.1-0.1,0.2-0.1,0.2-0.2c0.2-0.2,0.3-0.4,0.4-0.7c0.7-1.2,1.3-2.5,2-3.7c6.2,9.8,16.8,15.9,28.6,16.8C163.3,96,176,90,182.8,80.3
			c0.1-0.1,0.3-0.3,0.4-0.5c2.3-4.3,4.9-8.4,6.9-12.8c0.1-0.2,0.1-0.3,0.2-0.5C190.5,65.7,190.3,64.8,189.4,64.3z"/>
	</g>
	<g>
		<g>
			<path fill="#FFFFFF" d="M77.9,93.2c1.9,5,1.8,10.5-0.4,15.1c-2,4.7-5.8,8.5-13.4,11.4l-31.5,11.9L10.4,72.7l26.8-10.2
				c7.8-3,12.1-2.4,16.9-0.3c4.7,2.2,7.3,6,9.2,10.8c1.5,4.1,1.3,7.3,0.4,9c0.9-0.2,2.4-0.3,4.2,0.5C72.7,84.7,76,88.1,77.9,93.2z
				 M33.3,79.5l3.3,8.6l8.3-3.2c1.8-0.7,2.8-1.7,3.2-2.7c0.5-1.1,0.6-2.4,0.1-3.5c-0.9-2.4-3.5-3.5-5.9-2.6L33.3,79.5z M61.5,99.4
				c-0.9-2.5-3.7-3.7-6.1-2.7l-13.7,5.2l3.4,9l12.6-4.8c2.1-0.8,3.2-1.9,3.7-2.9C61.9,102,62,100.7,61.5,99.4z"/>
		</g>
		<g>
			<path fill="#FFFFFF" d="M91.4,60.6l2.5,6.6l24.2-9.2l5.6,14.8L99.5,82l8.1,21.3l-18.3,6.9l-22.4-59L109.6,35l6.2,16.3L91.4,60.6z
				"/>
		</g>
		<g>
			<path fill="#FFFFFF" d="M187.6,67.9c-4.9,8.5-8.9,11.1-17.8,14.4c-8.7,3.3-17.3,3.1-25.9-0.8c-8.6-3.9-14.5-10.2-17.7-18.9
				c-3.3-8.8-3.1-17.4,0.8-26c3.9-8.6,10.2-14.5,18.9-17.7c8.9-3.4,18-1.9,22.6-0.5L164,37.8c-0.1-0.1-0.1-0.1-0.2-0.1
				c-3.6-1.6-7.3-1.7-10.9-0.3c-3.7,1.4-6.4,3.9-8,7.5c-1.7,3.6-1.8,7.2-0.4,10.8c1.4,3.7,3.3,6.3,6.9,7.9c3.5,1.7,7.7,1.3,11.3-0.1
				c3.7-1.4,7.6-3.6,9.2-7.2c0.1-0.1,0.2-0.4,0.2-0.4l16.7,9.3L187.6,67.9z"/>
		</g>
	</g>
	<g>
		<g>
			<polygon fill="#FFFFFF" points="12.4,77.3 7.7,86 10,92.1 14.7,83.4 			"/>
		</g>
		<g>
			<polygon fill="#FFFFFF" points="15.5,85.5 10.8,94.2 11.5,96.1 16.2,87.3 			"/>
		</g>
		<g>
			<polygon fill="#FFFFFF" points="12.3,98.1 13,100 17.7,91.2 17,89.4 			"/>
		</g>
		<g>
			<polygon fill="#FFFFFF" points="69.6,56.1 69.5,55.9 64.5,65.2 66.8,71.3 71.8,61.9 			"/>
		</g>
		<g>
			<polygon fill="#FFFFFF" points="72.6,64 67.6,73.3 68.3,75.2 73.3,65.9 			"/>
		</g>
		<g>
			<polygon fill="#FFFFFF" points="69.1,77.5 69.9,79.4 74.9,70 74.2,68.2 			"/>
		</g>
		<g>
			<path fill="#FFFFFF" d="M127.1,38.2l-7.4,13.7c-0.7,3.6-0.7,7.2-0.1,10.8l5.3-9.8C124.5,45.7,126.4,39.9,127.1,38.2z"/>
		</g>
		<g>
			<path fill="#FFFFFF" d="M120,65.1c0.2,0.7,0.4,1.5,0.6,2.2l4.9-9.2c-0.2-0.8-0.3-1.6-0.4-2.4L120,65.1z"/>
		</g>
		<g>
			<path fill="#FFFFFF" d="M121.4,69.6c0,0.1,0,0.1,0.1,0.2c0.2,0.6,0.5,1.1,0.7,1.7l4.7-8.9c-0.3-0.7-0.5-1.3-0.7-2L121.4,69.6z"/>
		</g>
	</g>
	<g>
		<g>
			<g>
				<path fill="#092E44" d="M48.7,82.6c0.6-1.3,0.6-2.8,0.1-4.1c-0.8-2.1-2.7-3.5-4.9-3.5c-0.7,0-1.3,0.1-1.9,0.4L32.2,79l3.8,10.1
					l9.1-3.4C47.5,84.8,48.4,83.3,48.7,82.6z M37,87.1l-2.7-7.1l8.3-3.1c0.4-0.2,0.9-0.3,1.4-0.3c1.6,0,2.9,1,3.5,2.4
					c0.4,0.9,0.3,2-0.1,2.9c-0.2,0.5-0.9,1.6-2.7,2.2L37,87.1z"/>
			</g>
			<g>
				<path fill="#092E44" d="M57.1,95.6c-0.7,0-1.3,0.1-1.9,0.4l-14.4,5.5l4,10.5l13.3-5c2.1-0.8,3.4-1.9,4.1-3.4
					c0.6-1.4,0.7-2.9,0.2-4.3C61.5,97,59.4,95.6,57.1,95.6z M60.7,102.8c-0.5,1-1.6,1.9-3.2,2.5l-11.9,4.5l-2.9-7.5l13-4.9
					c0.4-0.2,0.9-0.3,1.4-0.3c1.6,0,3.1,1,3.7,2.5C61.2,100.7,61.1,101.8,60.7,102.8z"/>
			</g>
			<g>
				<path fill="#092E44" d="M78.7,92.9c-2-5.2-5.4-8.8-10.6-11.2C67,81.3,65.9,81,64.8,81c0.6-2.2,0.3-5.2-0.9-8.3
					c-2.2-5.7-5.1-9.2-9.6-11.3c-2.8-1.3-5.3-1.9-7.8-1.9c-2.8,0-5.9,0.7-9.7,2.1L9.3,72.2l22.9,60.4l32.2-12.2
					c7.1-2.7,11.5-6.4,13.8-11.8C80.5,103.8,80.6,98.1,78.7,92.9z M76.8,108c-2.2,5-6.3,8.4-12.9,11l-30.7,11.6L11.4,73.2l26-10
					c3.6-1.4,6.5-2,9.1-2c2.4,0,4.5,0.5,7.2,1.7c4,1.9,6.7,5.1,8.8,10.4c1.5,3.9,1.2,6.9,0.4,8.3L62,83.2l1.7-0.5
					c0.2-0.1,0.6-0.1,1.1-0.1c0.8,0,1.7,0.2,2.5,0.6c4.8,2.2,7.9,5.4,9.8,10.3C79,98.3,78.9,103.6,76.8,108z"/>
			</g>
		</g>
		<g>
			<g>
				<path fill="#092E44" d="M88.8,111.2L65.9,50.7L110,34l6.7,17.8L92.4,61l2,5.2l24.2-9.2l6.2,16.3l-24.2,9.2l8.1,21.3L88.8,111.2z
					 M67.9,51.6l21.8,57.6l16.8-6.4l-8.1-21.3l24.2-9.2l-5.1-13.3l-24.2,9.2l-3.1-8.1l24.4-9.2L109.1,36L67.9,51.6z"/>
			</g>
		</g>
		<g>
			<g>
				<path fill="#092E44" d="M157.8,85.4c-4.7,0-9.5-1.1-14.1-3.2c-8.7-3.9-14.8-10.4-18.2-19.3c-3.4-9-3.1-17.9,0.8-26.6
					c3.9-8.7,10.4-14.8,19.3-18.2c3.7-1.4,7.7-2.1,11.9-2.1c5,0,9.1,1,11.1,1.6l0.7,0.2l-4.8,21l-0.9-0.4c-0.1-0.1-0.1-0.1-0.3-0.1
					c-3.4-1.5-6.8-1.6-10.3-0.3c-3.5,1.3-6.1,3.7-7.5,7.1c-1.6,3.3-1.7,6.8-0.4,10.2c1.5,3.9,3.4,6.1,6.5,7.5
					c3,1.4,6.8,1.4,10.7-0.1c4.7-1.8,7.5-4,8.8-6.8l0.5-1.1l18,10.1l-1.5,3.2c-5,8.6-9.1,11.4-18.2,14.8
					C166,84.6,161.8,85.4,157.8,85.4z M157.5,17.7c-4.1,0-7.9,0.7-11.4,2c-8.5,3.2-14.7,9.1-18.4,17.3c-3.7,8.3-4,16.8-0.7,25.4
					c3.2,8.5,9.1,14.7,17.3,18.4c8.3,3.7,16.8,4,25.3,0.8c8.9-3.4,12.7-5.9,17.4-14.1l0.8-1.9l-15.3-8.6c-1.5,3-4.6,5.3-9.5,7.2
					c-4.3,1.6-8.6,1.7-11.9,0.1c-3.5-1.5-5.6-4-7.3-8.3c-1.5-3.9-1.3-7.8,0.4-11.4c1.6-3.7,4.4-6.4,8.4-7.9
					c3.7-1.4,7.3-1.4,10.9,0.1l4-17.7C165.4,18.4,161.8,17.7,157.5,17.7z"/>
			</g>
		</g>
	</g>
</g>
</svg>
